<svg width="8" height="7" viewBox="0 0 8 7" fill="none" xmlns="http://www.w3.org/2000/svg">
<mask id="path-1-inside-1_3814_1660" fill="white">
<path fill-rule="evenodd" clip-rule="evenodd" d="M6.45818 2.87533C6.54243 2.85068 6.62236 2.8159 6.69657 2.77244L7.00952 2.96664L7.29333 2.68282L7.09475 2.3628C7.13604 2.28743 7.16852 2.20654 7.19077 2.12152L7.54921 2.03759V1.63621L7.18259 1.55037C7.15794 1.46612 7.12317 1.38619 7.07971 1.31198L7.2739 0.999029L6.99009 0.715211L6.67007 0.913797C6.5947 0.872504 6.51381 0.840029 6.42879 0.817775L6.34486 0.459335H5.94348L5.85764 0.825953C5.77339 0.850602 5.69346 0.885374 5.61924 0.928837L5.3063 0.734642L5.02248 1.01846L5.22106 1.33848C5.17977 1.41384 5.1473 1.49473 5.12504 1.57975L4.7666 1.66368V2.06507L5.13321 2.15091C5.15786 2.23517 5.19263 2.3151 5.23609 2.38932L5.04191 2.70225L5.32573 2.98607L5.64572 2.78749C5.72109 2.82879 5.80199 2.86125 5.88702 2.88349L5.97095 3.24194H6.37233L6.45818 2.87533ZM6.15791 2.41516C6.46968 2.41516 6.72243 2.16241 6.72243 1.85064C6.72243 1.53887 6.46968 1.28612 6.15791 1.28612C5.84613 1.28612 5.59338 1.53887 5.59338 1.85064C5.59338 2.16241 5.84613 2.41516 6.15791 2.41516Z"/>
</mask>
<path fill-rule="evenodd" clip-rule="evenodd" d="M6.45818 2.87533C6.54243 2.85068 6.62236 2.8159 6.69657 2.77244L7.00952 2.96664L7.29333 2.68282L7.09475 2.3628C7.13604 2.28743 7.16852 2.20654 7.19077 2.12152L7.54921 2.03759V1.63621L7.18259 1.55037C7.15794 1.46612 7.12317 1.38619 7.07971 1.31198L7.2739 0.999029L6.99009 0.715211L6.67007 0.913797C6.5947 0.872504 6.51381 0.840029 6.42879 0.817775L6.34486 0.459335H5.94348L5.85764 0.825953C5.77339 0.850602 5.69346 0.885374 5.61924 0.928837L5.3063 0.734642L5.02248 1.01846L5.22106 1.33848C5.17977 1.41384 5.1473 1.49473 5.12504 1.57975L4.7666 1.66368V2.06507L5.13321 2.15091C5.15786 2.23517 5.19263 2.3151 5.23609 2.38932L5.04191 2.70225L5.32573 2.98607L5.64572 2.78749C5.72109 2.82879 5.80199 2.86125 5.88702 2.88349L5.97095 3.24194H6.37233L6.45818 2.87533ZM6.15791 2.41516C6.46968 2.41516 6.72243 2.16241 6.72243 1.85064C6.72243 1.53887 6.46968 1.28612 6.15791 1.28612C5.84613 1.28612 5.59338 1.53887 5.59338 1.85064C5.59338 2.16241 5.84613 2.41516 6.15791 2.41516Z" fill="#F79839"/>
<path d="M6.45818 2.87533L2.45817 1.93874L3.00452 -0.394645L5.30459 -1.06758L6.45818 2.87533ZM6.69657 2.77244L4.62037 -0.772511L6.75788 -2.0244L8.86269 -0.718287L6.69657 2.77244ZM7.00952 2.96664L9.91445 5.87157L7.61116 8.17486L4.84339 6.45736L7.00952 2.96664ZM7.29333 2.68282L10.784 0.516655L12.5016 3.28443L10.1983 5.58775L7.29333 2.68282ZM7.09475 2.3628L3.60405 4.52897L2.3398 2.49168L3.49183 0.388902L7.09475 2.3628ZM7.19077 2.12152L3.21648 1.08121L3.84345 -1.31401L6.25416 -1.87848L7.19077 2.12152ZM7.54921 2.03759H11.6574V5.29497L8.48582 6.0376L7.54921 2.03759ZM7.54921 1.63621L8.48579 -2.3638L11.6574 -1.62118V1.63621H7.54921ZM7.18259 1.55037L6.24601 5.55038L3.91262 5.00403L3.23969 2.70395L7.18259 1.55037ZM7.07971 1.31198L3.53476 3.38817L2.28287 1.25066L3.58898 -0.854145L7.07971 1.31198ZM7.2739 0.999029L10.1788 -1.9059L12.4821 0.397389L10.7646 3.16515L7.2739 0.999029ZM6.99009 0.715211L4.82392 -2.77549L7.5917 -4.49304L9.89502 -2.18972L6.99009 0.715211ZM6.67007 0.913797L8.83623 4.4045L6.79886 5.66879L4.69604 4.51664L6.67007 0.913797ZM6.42879 0.817775L5.38848 4.79207L2.99326 4.1651L2.42879 1.75438L6.42879 0.817775ZM6.34486 0.459335V-3.64886H9.60223L10.3449 -0.477273L6.34486 0.459335ZM5.94348 0.459335L1.94347 -0.477252L2.68609 -3.64886H5.94348V0.459335ZM5.85764 0.825953L9.85764 1.76254L9.31129 4.09592L7.01122 4.76886L5.85764 0.825953ZM5.61924 0.928837L7.69544 4.47379L5.55793 5.72568L3.45312 4.41956L5.61924 0.928837ZM5.3063 0.734642L2.40136 -2.17029L4.70466 -4.47358L7.47242 -2.75609L5.3063 0.734642ZM5.02248 1.01846L1.53177 3.18462L-0.185774 0.416845L2.11755 -1.88647L5.02248 1.01846ZM5.22106 1.33848L8.71177 -0.827687L9.97606 1.20968L8.82391 3.31251L5.22106 1.33848ZM5.12504 1.57975L9.09934 2.62006L8.47237 5.01529L6.06165 5.57976L5.12504 1.57975ZM4.7666 1.66368H0.658407V-1.59369L3.82999 -2.33632L4.7666 1.66368ZM4.7666 2.06507L3.82998 6.06507L0.658407 5.32243V2.06507H4.7666ZM5.13321 2.15091L6.06982 -1.84909L8.40305 -1.30276L9.07606 0.997132L5.13321 2.15091ZM5.23609 2.38932L8.78112 0.31326L10.0329 2.45072L8.72682 4.55543L5.23609 2.38932ZM5.04191 2.70225L2.13698 5.60718L-0.166311 3.30389L1.55118 0.536133L5.04191 2.70225ZM5.32573 2.98607L7.49188 6.47677L4.72411 8.19431L2.42079 5.891L5.32573 2.98607ZM5.64572 2.78749L3.47957 -0.703214L5.51694 -1.9675L7.61975 -0.815349L5.64572 2.78749ZM5.88702 2.88349L6.92634 -1.09106L9.32242 -0.464506L9.88703 1.94692L5.88702 2.88349ZM5.97095 3.24194V7.35014H2.71355L1.97094 4.17852L5.97095 3.24194ZM6.37233 3.24194L10.3723 4.17853L9.62972 7.35014H6.37233V3.24194ZM6.45818 2.87533L5.30459 -1.06758C5.06124 -0.996383 4.83178 -0.896328 4.62037 -0.772511L6.69657 2.77244L8.77276 6.31739C8.41293 6.52814 8.02361 6.69774 7.61176 6.81823L6.45818 2.87533ZM6.69657 2.77244L8.86269 -0.718287L9.17564 -0.524091L7.00952 2.96664L4.84339 6.45736L4.53044 6.26317L6.69657 2.77244ZM7.00952 2.96664L4.10458 0.0617051L4.3884 -0.222113L7.29333 2.68282L10.1983 5.58775L9.91445 5.87157L7.00952 2.96664ZM7.29333 2.68282L3.80263 4.84898L3.60405 4.52897L7.09475 2.3628L10.5855 0.19664L10.784 0.516655L7.29333 2.68282ZM7.09475 2.3628L3.49183 0.388902C3.37402 0.603937 3.28062 0.836172 3.21648 1.08121L7.19077 2.12152L11.1651 3.16183C11.0564 3.57691 10.8981 3.97092 10.6977 4.3367L7.09475 2.3628ZM7.19077 2.12152L6.25416 -1.87848L6.6126 -1.96241L7.54921 2.03759L8.48582 6.0376L8.12738 6.12153L7.19077 2.12152ZM7.54921 2.03759H3.44102V1.63621H7.54921H11.6574V2.03759H7.54921ZM7.54921 1.63621L6.61263 5.63622L6.24601 5.55038L7.18259 1.55037L8.11918 -2.44964L8.48579 -2.3638L7.54921 1.63621ZM7.18259 1.55037L3.23969 2.70395C3.31088 2.9473 3.41094 3.17676 3.53476 3.38817L7.07971 1.31198L10.6247 -0.764216C10.8354 -0.404384 11.005 -0.0150645 11.1255 0.396786L7.18259 1.55037ZM7.07971 1.31198L3.58898 -0.854145L3.78318 -1.16709L7.2739 0.999029L10.7646 3.16515L10.5704 3.4781L7.07971 1.31198ZM7.2739 0.999029L4.36897 3.90396L4.08515 3.62014L6.99009 0.715211L9.89502 -2.18972L10.1788 -1.9059L7.2739 0.999029ZM6.99009 0.715211L9.15625 4.20591L8.83623 4.4045L6.67007 0.913797L4.50391 -2.57691L4.82392 -2.77549L6.99009 0.715211ZM6.67007 0.913797L4.69604 4.51664C4.91124 4.63455 5.14352 4.72795 5.38848 4.79207L6.42879 0.817775L7.4691 -3.15652C7.8841 -3.04789 8.27817 -2.88954 8.6441 -2.68904L6.67007 0.913797ZM6.42879 0.817775L2.42879 1.75438L2.34486 1.39594L6.34486 0.459335L10.3449 -0.477273L10.4288 -0.118833L6.42879 0.817775ZM6.34486 0.459335V4.56753H5.94348V0.459335V-3.64886H6.34486V0.459335ZM5.94348 0.459335L9.94349 1.39592L9.85764 1.76254L5.85764 0.825953L1.85763 -0.110634L1.94347 -0.477252L5.94348 0.459335ZM5.85764 0.825953L7.01122 4.76886C7.25457 4.69766 7.48403 4.59761 7.69544 4.47379L5.61924 0.928837L3.54305 -2.61612C3.90288 -2.82686 4.2922 -2.99646 4.70405 -3.11695L5.85764 0.825953ZM5.61924 0.928837L3.45312 4.41956L3.14017 4.22537L5.3063 0.734642L7.47242 -2.75609L7.78537 -2.56189L5.61924 0.928837ZM5.3063 0.734642L8.21123 3.63957L7.92741 3.92339L5.02248 1.01846L2.11755 -1.88647L2.40136 -2.17029L5.3063 0.734642ZM5.02248 1.01846L8.51318 -1.1477L8.71177 -0.827687L5.22106 1.33848L1.73036 3.50464L1.53177 3.18462L5.02248 1.01846ZM5.22106 1.33848L8.82391 3.31251C8.94182 3.0973 9.03522 2.86501 9.09934 2.62006L5.12504 1.57975L1.15075 0.539447C1.25937 0.124455 1.41772 -0.269615 1.61822 -0.635554L5.22106 1.33848ZM5.12504 1.57975L6.06165 5.57976L5.70321 5.66369L4.7666 1.66368L3.82999 -2.33632L4.18843 -2.42025L5.12504 1.57975ZM4.7666 1.66368H8.8748V2.06507H4.7666H0.658407V1.66368H4.7666ZM4.7666 2.06507L5.70322 -1.93493L6.06982 -1.84909L5.13321 2.15091L4.19659 6.15091L3.82998 6.06507L4.7666 2.06507ZM5.13321 2.15091L9.07606 0.997132C9.00496 0.75418 8.90501 0.524816 8.78112 0.31326L5.23609 2.38932L1.69106 4.46538C1.48024 4.10539 1.31076 3.71615 1.19036 3.30469L5.13321 2.15091ZM5.23609 2.38932L8.72682 4.55543L8.53264 4.86836L5.04191 2.70225L1.55118 0.536133L1.74536 0.223204L5.23609 2.38932ZM5.04191 2.70225L7.94684 -0.202684L8.23066 0.0811343L5.32573 2.98607L2.42079 5.891L2.13698 5.60718L5.04191 2.70225ZM5.32573 2.98607L3.15957 -0.50464L3.47957 -0.703214L5.64572 2.78749L7.81188 6.2782L7.49188 6.47677L5.32573 2.98607ZM5.64572 2.78749L7.61975 -0.815349C7.4043 -0.933397 7.17169 -1.02691 6.92634 -1.09106L5.88702 2.88349L4.8477 6.85804C4.43229 6.74942 4.03788 6.59097 3.67169 6.39034L5.64572 2.78749ZM5.88702 2.88349L9.88703 1.94692L9.97096 2.30537L5.97095 3.24194L1.97094 4.17852L1.88701 3.82007L5.88702 2.88349ZM5.97095 3.24194V-0.866251H6.37233V3.24194V7.35014H5.97095V3.24194ZM6.37233 3.24194L2.37233 2.30536L2.45817 1.93874L6.45818 2.87533L10.4582 3.81191L10.3723 4.17853L6.37233 3.24194ZM6.15791 2.41516V-1.69303C4.20079 -1.69303 2.61423 -0.106482 2.61423 1.85064H6.72243H10.8306C10.8306 4.43131 8.73857 6.52336 6.15791 6.52336V2.41516ZM6.72243 1.85064H2.61423C2.61423 3.80776 4.20079 5.39431 6.15791 5.39431V1.28612V-2.82208C8.73857 -2.82208 10.8306 -0.730028 10.8306 1.85064H6.72243ZM6.15791 1.28612V5.39431C8.11503 5.39431 9.70158 3.80776 9.70158 1.85064H5.59338H1.48519C1.48519 -0.730027 3.57724 -2.82208 6.15791 -2.82208V1.28612ZM5.59338 1.85064H9.70158C9.70158 -0.106481 8.11503 -1.69303 6.15791 -1.69303V2.41516V6.52336C3.57724 6.52336 1.48519 4.43131 1.48519 1.85064H5.59338Z" fill="url(#paint0_linear_3814_1660)" fill-opacity="0.5" mask="url(#path-1-inside-1_3814_1660)"/>
<path d="M6.45818 2.87533L2.45817 1.93874L3.00452 -0.394645L5.30459 -1.06758L6.45818 2.87533ZM6.69657 2.77244L4.62037 -0.772511L6.75788 -2.0244L8.86269 -0.718287L6.69657 2.77244ZM7.00952 2.96664L9.91445 5.87157L7.61116 8.17486L4.84339 6.45736L7.00952 2.96664ZM7.29333 2.68282L10.784 0.516655L12.5016 3.28443L10.1983 5.58775L7.29333 2.68282ZM7.09475 2.3628L3.60405 4.52897L2.3398 2.49168L3.49183 0.388902L7.09475 2.3628ZM7.19077 2.12152L3.21648 1.08121L3.84345 -1.31401L6.25416 -1.87848L7.19077 2.12152ZM7.54921 2.03759H11.6574V5.29497L8.48582 6.0376L7.54921 2.03759ZM7.54921 1.63621L8.48579 -2.3638L11.6574 -1.62118V1.63621H7.54921ZM7.18259 1.55037L6.24601 5.55038L3.91262 5.00403L3.23969 2.70395L7.18259 1.55037ZM7.07971 1.31198L3.53476 3.38817L2.28287 1.25066L3.58898 -0.854145L7.07971 1.31198ZM7.2739 0.999029L10.1788 -1.9059L12.4821 0.397389L10.7646 3.16515L7.2739 0.999029ZM6.99009 0.715211L4.82392 -2.77549L7.5917 -4.49304L9.89502 -2.18972L6.99009 0.715211ZM6.67007 0.913797L8.83623 4.4045L6.79886 5.66879L4.69604 4.51664L6.67007 0.913797ZM6.42879 0.817775L5.38848 4.79207L2.99326 4.1651L2.42879 1.75438L6.42879 0.817775ZM6.34486 0.459335V-3.64886H9.60223L10.3449 -0.477273L6.34486 0.459335ZM5.94348 0.459335L1.94347 -0.477252L2.68609 -3.64886H5.94348V0.459335ZM5.85764 0.825953L9.85764 1.76254L9.31129 4.09592L7.01122 4.76886L5.85764 0.825953ZM5.61924 0.928837L7.69544 4.47379L5.55793 5.72568L3.45312 4.41956L5.61924 0.928837ZM5.3063 0.734642L2.40136 -2.17029L4.70466 -4.47358L7.47242 -2.75609L5.3063 0.734642ZM5.02248 1.01846L1.53177 3.18462L-0.185774 0.416845L2.11755 -1.88647L5.02248 1.01846ZM5.22106 1.33848L8.71177 -0.827687L9.97606 1.20968L8.82391 3.31251L5.22106 1.33848ZM5.12504 1.57975L9.09934 2.62006L8.47237 5.01529L6.06165 5.57976L5.12504 1.57975ZM4.7666 1.66368H0.658407V-1.59369L3.82999 -2.33632L4.7666 1.66368ZM4.7666 2.06507L3.82998 6.06507L0.658407 5.32243V2.06507H4.7666ZM5.13321 2.15091L6.06982 -1.84909L8.40305 -1.30276L9.07606 0.997132L5.13321 2.15091ZM5.23609 2.38932L8.78112 0.31326L10.0329 2.45072L8.72682 4.55543L5.23609 2.38932ZM5.04191 2.70225L2.13698 5.60718L-0.166311 3.30389L1.55118 0.536133L5.04191 2.70225ZM5.32573 2.98607L7.49188 6.47677L4.72411 8.19431L2.42079 5.891L5.32573 2.98607ZM5.64572 2.78749L3.47957 -0.703214L5.51694 -1.9675L7.61975 -0.815349L5.64572 2.78749ZM5.88702 2.88349L6.92634 -1.09106L9.32242 -0.464506L9.88703 1.94692L5.88702 2.88349ZM5.97095 3.24194V7.35014H2.71355L1.97094 4.17852L5.97095 3.24194ZM6.37233 3.24194L10.3723 4.17853L9.62972 7.35014H6.37233V3.24194ZM6.45818 2.87533L5.30459 -1.06758C5.06124 -0.996383 4.83178 -0.896328 4.62037 -0.772511L6.69657 2.77244L8.77276 6.31739C8.41293 6.52814 8.02361 6.69774 7.61176 6.81823L6.45818 2.87533ZM6.69657 2.77244L8.86269 -0.718287L9.17564 -0.524091L7.00952 2.96664L4.84339 6.45736L4.53044 6.26317L6.69657 2.77244ZM7.00952 2.96664L4.10458 0.0617051L4.3884 -0.222113L7.29333 2.68282L10.1983 5.58775L9.91445 5.87157L7.00952 2.96664ZM7.29333 2.68282L3.80263 4.84898L3.60405 4.52897L7.09475 2.3628L10.5855 0.19664L10.784 0.516655L7.29333 2.68282ZM7.09475 2.3628L3.49183 0.388902C3.37402 0.603937 3.28062 0.836172 3.21648 1.08121L7.19077 2.12152L11.1651 3.16183C11.0564 3.57691 10.8981 3.97092 10.6977 4.3367L7.09475 2.3628ZM7.19077 2.12152L6.25416 -1.87848L6.6126 -1.96241L7.54921 2.03759L8.48582 6.0376L8.12738 6.12153L7.19077 2.12152ZM7.54921 2.03759H3.44102V1.63621H7.54921H11.6574V2.03759H7.54921ZM7.54921 1.63621L6.61263 5.63622L6.24601 5.55038L7.18259 1.55037L8.11918 -2.44964L8.48579 -2.3638L7.54921 1.63621ZM7.18259 1.55037L3.23969 2.70395C3.31088 2.9473 3.41094 3.17676 3.53476 3.38817L7.07971 1.31198L10.6247 -0.764216C10.8354 -0.404384 11.005 -0.0150645 11.1255 0.396786L7.18259 1.55037ZM7.07971 1.31198L3.58898 -0.854145L3.78318 -1.16709L7.2739 0.999029L10.7646 3.16515L10.5704 3.4781L7.07971 1.31198ZM7.2739 0.999029L4.36897 3.90396L4.08515 3.62014L6.99009 0.715211L9.89502 -2.18972L10.1788 -1.9059L7.2739 0.999029ZM6.99009 0.715211L9.15625 4.20591L8.83623 4.4045L6.67007 0.913797L4.50391 -2.57691L4.82392 -2.77549L6.99009 0.715211ZM6.67007 0.913797L4.69604 4.51664C4.91124 4.63455 5.14352 4.72795 5.38848 4.79207L6.42879 0.817775L7.4691 -3.15652C7.8841 -3.04789 8.27817 -2.88954 8.6441 -2.68904L6.67007 0.913797ZM6.42879 0.817775L2.42879 1.75438L2.34486 1.39594L6.34486 0.459335L10.3449 -0.477273L10.4288 -0.118833L6.42879 0.817775ZM6.34486 0.459335V4.56753H5.94348V0.459335V-3.64886H6.34486V0.459335ZM5.94348 0.459335L9.94349 1.39592L9.85764 1.76254L5.85764 0.825953L1.85763 -0.110634L1.94347 -0.477252L5.94348 0.459335ZM5.85764 0.825953L7.01122 4.76886C7.25457 4.69766 7.48403 4.59761 7.69544 4.47379L5.61924 0.928837L3.54305 -2.61612C3.90288 -2.82686 4.2922 -2.99646 4.70405 -3.11695L5.85764 0.825953ZM5.61924 0.928837L3.45312 4.41956L3.14017 4.22537L5.3063 0.734642L7.47242 -2.75609L7.78537 -2.56189L5.61924 0.928837ZM5.3063 0.734642L8.21123 3.63957L7.92741 3.92339L5.02248 1.01846L2.11755 -1.88647L2.40136 -2.17029L5.3063 0.734642ZM5.02248 1.01846L8.51318 -1.1477L8.71177 -0.827687L5.22106 1.33848L1.73036 3.50464L1.53177 3.18462L5.02248 1.01846ZM5.22106 1.33848L8.82391 3.31251C8.94182 3.0973 9.03522 2.86501 9.09934 2.62006L5.12504 1.57975L1.15075 0.539447C1.25937 0.124455 1.41772 -0.269615 1.61822 -0.635554L5.22106 1.33848ZM5.12504 1.57975L6.06165 5.57976L5.70321 5.66369L4.7666 1.66368L3.82999 -2.33632L4.18843 -2.42025L5.12504 1.57975ZM4.7666 1.66368H8.8748V2.06507H4.7666H0.658407V1.66368H4.7666ZM4.7666 2.06507L5.70322 -1.93493L6.06982 -1.84909L5.13321 2.15091L4.19659 6.15091L3.82998 6.06507L4.7666 2.06507ZM5.13321 2.15091L9.07606 0.997132C9.00496 0.75418 8.90501 0.524816 8.78112 0.31326L5.23609 2.38932L1.69106 4.46538C1.48024 4.10539 1.31076 3.71615 1.19036 3.30469L5.13321 2.15091ZM5.23609 2.38932L8.72682 4.55543L8.53264 4.86836L5.04191 2.70225L1.55118 0.536133L1.74536 0.223204L5.23609 2.38932ZM5.04191 2.70225L7.94684 -0.202684L8.23066 0.0811343L5.32573 2.98607L2.42079 5.891L2.13698 5.60718L5.04191 2.70225ZM5.32573 2.98607L3.15957 -0.50464L3.47957 -0.703214L5.64572 2.78749L7.81188 6.2782L7.49188 6.47677L5.32573 2.98607ZM5.64572 2.78749L7.61975 -0.815349C7.4043 -0.933397 7.17169 -1.02691 6.92634 -1.09106L5.88702 2.88349L4.8477 6.85804C4.43229 6.74942 4.03788 6.59097 3.67169 6.39034L5.64572 2.78749ZM5.88702 2.88349L9.88703 1.94692L9.97096 2.30537L5.97095 3.24194L1.97094 4.17852L1.88701 3.82007L5.88702 2.88349ZM5.97095 3.24194V-0.866251H6.37233V3.24194V7.35014H5.97095V3.24194ZM6.37233 3.24194L2.37233 2.30536L2.45817 1.93874L6.45818 2.87533L10.4582 3.81191L10.3723 4.17853L6.37233 3.24194ZM6.15791 2.41516V-1.69303C4.20079 -1.69303 2.61423 -0.106482 2.61423 1.85064H6.72243H10.8306C10.8306 4.43131 8.73857 6.52336 6.15791 6.52336V2.41516ZM6.72243 1.85064H2.61423C2.61423 3.80776 4.20079 5.39431 6.15791 5.39431V1.28612V-2.82208C8.73857 -2.82208 10.8306 -0.730028 10.8306 1.85064H6.72243ZM6.15791 1.28612V5.39431C8.11503 5.39431 9.70158 3.80776 9.70158 1.85064H5.59338H1.48519C1.48519 -0.730027 3.57724 -2.82208 6.15791 -2.82208V1.28612ZM5.59338 1.85064H9.70158C9.70158 -0.106481 8.11503 -1.69303 6.15791 -1.69303V2.41516V6.52336C3.57724 6.52336 1.48519 4.43131 1.48519 1.85064H5.59338Z" fill="url(#paint1_linear_3814_1660)" mask="url(#path-1-inside-1_3814_1660)"/>
<mask id="path-3-inside-2_3814_1660" fill="white">
<path fill-rule="evenodd" clip-rule="evenodd" d="M3.69022 5.42878C3.82712 5.38873 3.95701 5.33222 4.0776 5.26159L4.58614 5.57716L5.04735 5.11596L4.72464 4.59593C4.79175 4.47345 4.84452 4.34201 4.88068 4.20385L5.46315 4.06747V3.41522L4.86739 3.27573C4.82734 3.13882 4.77083 3.00893 4.7002 2.88834L5.01577 2.3798L4.55457 1.9186L4.03454 2.2413C3.91207 2.1742 3.78062 2.12143 3.64246 2.08526L3.50608 1.5028H2.85383L2.71434 2.09855C2.57743 2.13861 2.44754 2.19511 2.32695 2.26574L1.81841 1.95017L1.35721 2.41138L1.67991 2.9314C1.61281 3.05387 1.56004 3.18532 1.52387 3.32348L0.941406 3.45987V4.11211L1.53714 4.25161C1.5772 4.38852 1.6337 4.51842 1.70433 4.63902L1.38878 5.14753L1.84998 5.60874L2.36998 5.28606C2.49245 5.35316 2.62391 5.40592 2.76209 5.44205L2.89847 6.02454H3.55072L3.69022 5.42878ZM3.20228 4.68102C3.70891 4.68102 4.11963 4.2703 4.11963 3.76367C4.11963 3.25704 3.70891 2.84632 3.20228 2.84632C2.69564 2.84632 2.28492 3.25704 2.28492 3.76367C2.28492 4.2703 2.69564 4.68102 3.20228 4.68102Z"/>
</mask>
<path fill-rule="evenodd" clip-rule="evenodd" d="M3.69022 5.42878C3.82712 5.38873 3.95701 5.33222 4.0776 5.26159L4.58614 5.57716L5.04735 5.11596L4.72464 4.59593C4.79175 4.47345 4.84452 4.34201 4.88068 4.20385L5.46315 4.06747V3.41522L4.86739 3.27573C4.82734 3.13882 4.77083 3.00893 4.7002 2.88834L5.01577 2.3798L4.55457 1.9186L4.03454 2.2413C3.91207 2.1742 3.78062 2.12143 3.64246 2.08526L3.50608 1.5028H2.85383L2.71434 2.09855C2.57743 2.13861 2.44754 2.19511 2.32695 2.26574L1.81841 1.95017L1.35721 2.41138L1.67991 2.9314C1.61281 3.05387 1.56004 3.18532 1.52387 3.32348L0.941406 3.45987V4.11211L1.53714 4.25161C1.5772 4.38852 1.6337 4.51842 1.70433 4.63902L1.38878 5.14753L1.84998 5.60874L2.36998 5.28606C2.49245 5.35316 2.62391 5.40592 2.76209 5.44205L2.89847 6.02454H3.55072L3.69022 5.42878ZM3.20228 4.68102C3.70891 4.68102 4.11963 4.2703 4.11963 3.76367C4.11963 3.25704 3.70891 2.84632 3.20228 2.84632C2.69564 2.84632 2.28492 3.25704 2.28492 3.76367C2.28492 4.2703 2.69564 4.68102 3.20228 4.68102Z" fill="#F79839"/>
<path d="M3.69022 5.42878L-0.309794 4.4922L0.236558 2.15881L2.53663 1.48588L3.69022 5.42878ZM4.0776 5.26159L2.00141 1.71664L4.13891 0.464756L6.24372 1.77087L4.0776 5.26159ZM4.58614 5.57716L7.49108 8.48209L5.18778 10.7854L2.42002 9.06789L4.58614 5.57716ZM5.04735 5.11596L8.53805 2.9498L10.2556 5.71757L7.95228 8.02089L5.04735 5.11596ZM4.72464 4.59593L1.23394 6.76209L-0.0303012 4.72481L1.12173 2.62203L4.72464 4.59593ZM4.88068 4.20385L0.906385 3.16355L1.53336 0.768322L3.94407 0.203849L4.88068 4.20385ZM5.46315 4.06747H9.57134V7.32484L6.39975 8.06747L5.46315 4.06747ZM5.46315 3.41522L6.39973 -0.584789L9.57134 0.157829V3.41522H5.46315ZM4.86739 3.27573L3.93081 7.27574L1.59742 6.72938L0.924484 4.42931L4.86739 3.27573ZM4.7002 2.88834L1.15525 4.96454L-0.0966337 2.82703L1.20948 0.722221L4.7002 2.88834ZM5.01577 2.3798L7.9207 -0.525132L10.224 1.77816L8.5065 4.54592L5.01577 2.3798ZM4.55457 1.9186L2.3884 -1.57211L5.15618 -3.28965L7.4595 -0.986337L4.55457 1.9186ZM4.03454 2.2413L6.2007 5.732L4.16333 6.9963L2.06051 5.84414L4.03454 2.2413ZM3.64246 2.08526L2.60215 6.05956L0.206931 5.43259L-0.357542 3.02187L3.64246 2.08526ZM3.50608 1.5028V-2.6054H6.76345L7.50608 0.566191L3.50608 1.5028ZM2.85383 1.5028L-1.14618 0.566211L-0.40356 -2.6054H2.85383V1.5028ZM2.71434 2.09855L6.71434 3.03514L6.16799 5.36852L3.86792 6.04146L2.71434 2.09855ZM2.32695 2.26574L4.40314 5.81069L2.26564 7.06258L0.16083 5.75647L2.32695 2.26574ZM1.81841 1.95017L-1.08652 -0.954762L1.21677 -3.25805L3.98453 -1.54056L1.81841 1.95017ZM1.35721 2.41138L-2.1335 4.57754L-3.85105 1.80976L-1.54773 -0.493557L1.35721 2.41138ZM1.67991 2.9314L5.17061 0.765238L6.43491 2.80261L5.28275 4.90543L1.67991 2.9314ZM1.52387 3.32348L5.49817 4.36379L4.87119 6.75901L2.46048 7.32348L1.52387 3.32348ZM0.941406 3.45987H-3.16679V0.202492L0.00480044 -0.540139L0.941406 3.45987ZM0.941406 4.11211L0.00478846 8.11211L-3.16679 7.36948V4.11211H0.941406ZM1.53714 4.25161L2.47376 0.251605L4.80698 0.79794L5.47999 3.09783L1.53714 4.25161ZM1.70433 4.63902L5.24936 2.56296L6.50111 4.70042L5.19506 6.80514L1.70433 4.63902ZM1.38878 5.14753L-1.51615 8.05246L-3.81944 5.74918L-2.10195 2.98142L1.38878 5.14753ZM1.84998 5.60874L4.01614 9.09944L1.24837 10.817L-1.05495 8.51367L1.84998 5.60874ZM2.36998 5.28606L0.203824 1.79535L2.24119 0.531061L4.34401 1.68321L2.36998 5.28606ZM2.76209 5.44205L3.80141 1.4675L6.19748 2.09405L6.7621 4.50548L2.76209 5.44205ZM2.89847 6.02454V10.1327H-0.358926L-1.10154 6.96111L2.89847 6.02454ZM3.55072 6.02454L7.55073 6.96112L6.80811 10.1327H3.55072V6.02454ZM3.69022 5.42878L2.53663 1.48588C2.34594 1.54167 2.16643 1.61999 2.00141 1.71664L4.0776 5.26159L6.15379 8.80655C5.74758 9.04446 5.30831 9.23579 4.8438 9.37169L3.69022 5.42878ZM4.0776 5.26159L6.24372 1.77087L6.75226 2.08644L4.58614 5.57716L2.42002 9.06789L1.91148 8.75232L4.0776 5.26159ZM4.58614 5.57716L1.68121 2.67223L2.14241 2.21103L5.04735 5.11596L7.95228 8.02089L7.49108 8.48209L4.58614 5.57716ZM5.04735 5.11596L1.55664 7.28212L1.23394 6.76209L4.72464 4.59593L8.21535 2.42977L8.53805 2.9498L5.04735 5.11596ZM4.72464 4.59593L1.12173 2.62203C1.02973 2.78996 0.956617 2.97164 0.906385 3.16355L4.88068 4.20385L8.85498 5.24416C8.73242 5.71238 8.55376 6.15694 8.32756 6.56983L4.72464 4.59593ZM4.88068 4.20385L3.94407 0.203849L4.52654 0.0674644L5.46315 4.06747L6.39975 8.06747L5.81729 8.20386L4.88068 4.20385ZM5.46315 4.06747H1.35495V3.41522H5.46315H9.57134V4.06747H5.46315ZM5.46315 3.41522L4.52656 7.41523L3.93081 7.27574L4.86739 3.27573L5.80398 -0.724282L6.39973 -0.584789L5.46315 3.41522ZM4.86739 3.27573L0.924484 4.42931C0.980275 4.62 1.0586 4.7995 1.15525 4.96454L4.7002 2.88834L8.24516 0.812149C8.48307 1.21836 8.6744 1.65764 8.8103 2.12215L4.86739 3.27573ZM4.7002 2.88834L1.20948 0.722221L1.52504 0.21368L5.01577 2.3798L8.5065 4.54592L8.19093 5.05446L4.7002 2.88834ZM5.01577 2.3798L2.11084 5.28473L1.64964 4.82353L4.55457 1.9186L7.4595 -0.986337L7.9207 -0.525132L5.01577 2.3798ZM4.55457 1.9186L6.72073 5.4093L6.2007 5.732L4.03454 2.2413L1.86838 -1.2494L2.3884 -1.57211L4.55457 1.9186ZM4.03454 2.2413L2.06051 5.84414C2.22861 5.93625 2.41034 6.00935 2.60215 6.05956L3.64246 2.08526L4.68277 -1.88903C5.1509 -1.7665 5.59553 -1.58785 6.00857 -1.36154L4.03454 2.2413ZM3.64246 2.08526L-0.357542 3.02187L-0.493927 2.4394L3.50608 1.5028L7.50608 0.566191L7.64247 1.14866L3.64246 2.08526ZM3.50608 1.5028V5.61099H2.85383V1.5028V-2.6054H3.50608V1.5028ZM2.85383 1.5028L6.85384 2.43938L6.71434 3.03514L2.71434 2.09855L-1.28567 1.16196L-1.14618 0.566211L2.85383 1.5028ZM2.71434 2.09855L3.86792 6.04146C4.05861 5.98567 4.23811 5.90734 4.40314 5.81069L2.32695 2.26574L0.250758 -1.27921C0.656972 -1.51712 1.09625 -1.70845 1.56075 -1.84436L2.71434 2.09855ZM2.32695 2.26574L0.16083 5.75647L-0.347711 5.4409L1.81841 1.95017L3.98453 -1.54056L4.49307 -1.22499L2.32695 2.26574ZM1.81841 1.95017L4.72334 4.8551L4.26214 5.31631L1.35721 2.41138L-1.54773 -0.493557L-1.08652 -0.954762L1.81841 1.95017ZM1.35721 2.41138L4.84791 0.245213L5.17061 0.765238L1.67991 2.9314L-1.81079 5.09756L-2.1335 4.57754L1.35721 2.41138ZM1.67991 2.9314L5.28275 4.90543C5.37486 4.73733 5.44796 4.5556 5.49817 4.36379L1.52387 3.32348L-2.45042 2.28317C-2.32789 1.81504 -2.14925 1.37042 -1.92293 0.957371L1.67991 2.9314ZM1.52387 3.32348L2.46048 7.32348L1.87801 7.45987L0.941406 3.45987L0.00480044 -0.540139L0.587265 -0.676524L1.52387 3.32348ZM0.941406 3.45987H5.0496V4.11211H0.941406H-3.16679V3.45987H0.941406ZM0.941406 4.11211L1.87802 0.112112L2.47376 0.251605L1.53714 4.25161L0.600522 8.25161L0.00478846 8.11211L0.941406 4.11211ZM1.53714 4.25161L5.47999 3.09783C5.4243 2.90754 5.34609 2.72813 5.24936 2.56296L1.70433 4.63902L-1.8407 6.71508C-2.07869 6.30871 -2.2699 5.86951 -2.40571 5.40538L1.53714 4.25161ZM1.70433 4.63902L5.19506 6.80514L4.87951 7.31365L1.38878 5.14753L-2.10195 2.98142L-1.7864 2.47291L1.70433 4.63902ZM1.38878 5.14753L4.29371 2.2426L4.75492 2.7038L1.84998 5.60874L-1.05495 8.51367L-1.51615 8.05246L1.38878 5.14753ZM1.84998 5.60874L-0.31617 2.11803L0.203824 1.79535L2.36998 5.28606L4.53613 8.77676L4.01614 9.09944L1.84998 5.60874ZM2.36998 5.28606L4.34401 1.68321C4.17566 1.59097 3.99361 1.51776 3.80141 1.4675L2.76209 5.44205L1.72277 9.4166C1.25421 9.29408 0.809238 9.11534 0.395949 8.8889L2.36998 5.28606ZM2.76209 5.44205L6.7621 4.50548L6.89849 5.08796L2.89847 6.02454L-1.10154 6.96111L-1.23792 6.37862L2.76209 5.44205ZM2.89847 6.02454V1.91634H3.55072V6.02454V10.1327H2.89847V6.02454ZM3.55072 6.02454L-0.449287 5.08795L-0.309794 4.4922L3.69022 5.42878L7.69022 6.36537L7.55073 6.96112L3.55072 6.02454ZM3.20228 4.68102V0.572823C1.44001 0.572823 0.0114319 2.0014 0.0114319 3.76367H4.11963H8.22782C8.22782 6.53919 5.9778 8.78921 3.20228 8.78921V4.68102ZM4.11963 3.76367H0.0114319C0.0114319 5.52593 1.44001 6.95451 3.20228 6.95451V2.84632V-1.26188C5.9778 -1.26188 8.22782 0.988142 8.22782 3.76367H4.11963ZM3.20228 2.84632V6.95451C4.96454 6.95451 6.39312 5.52593 6.39312 3.76367H2.28492H-1.82327C-1.82327 0.988142 0.42675 -1.26188 3.20228 -1.26188V2.84632ZM2.28492 3.76367H6.39312C6.39312 2.00141 4.96454 0.572823 3.20228 0.572823V4.68102V8.78921C0.42675 8.78921 -1.82327 6.53919 -1.82327 3.76367H2.28492Z" fill="url(#paint2_linear_3814_1660)" fill-opacity="0.5" mask="url(#path-3-inside-2_3814_1660)"/>
<path d="M3.69022 5.42878L-0.309794 4.4922L0.236558 2.15881L2.53663 1.48588L3.69022 5.42878ZM4.0776 5.26159L2.00141 1.71664L4.13891 0.464756L6.24372 1.77087L4.0776 5.26159ZM4.58614 5.57716L7.49108 8.48209L5.18778 10.7854L2.42002 9.06789L4.58614 5.57716ZM5.04735 5.11596L8.53805 2.9498L10.2556 5.71757L7.95228 8.02089L5.04735 5.11596ZM4.72464 4.59593L1.23394 6.76209L-0.0303012 4.72481L1.12173 2.62203L4.72464 4.59593ZM4.88068 4.20385L0.906385 3.16355L1.53336 0.768322L3.94407 0.203849L4.88068 4.20385ZM5.46315 4.06747H9.57134V7.32484L6.39975 8.06747L5.46315 4.06747ZM5.46315 3.41522L6.39973 -0.584789L9.57134 0.157829V3.41522H5.46315ZM4.86739 3.27573L3.93081 7.27574L1.59742 6.72938L0.924484 4.42931L4.86739 3.27573ZM4.7002 2.88834L1.15525 4.96454L-0.0966337 2.82703L1.20948 0.722221L4.7002 2.88834ZM5.01577 2.3798L7.9207 -0.525132L10.224 1.77816L8.5065 4.54592L5.01577 2.3798ZM4.55457 1.9186L2.3884 -1.57211L5.15618 -3.28965L7.4595 -0.986337L4.55457 1.9186ZM4.03454 2.2413L6.2007 5.732L4.16333 6.9963L2.06051 5.84414L4.03454 2.2413ZM3.64246 2.08526L2.60215 6.05956L0.206931 5.43259L-0.357542 3.02187L3.64246 2.08526ZM3.50608 1.5028V-2.6054H6.76345L7.50608 0.566191L3.50608 1.5028ZM2.85383 1.5028L-1.14618 0.566211L-0.40356 -2.6054H2.85383V1.5028ZM2.71434 2.09855L6.71434 3.03514L6.16799 5.36852L3.86792 6.04146L2.71434 2.09855ZM2.32695 2.26574L4.40314 5.81069L2.26564 7.06258L0.16083 5.75647L2.32695 2.26574ZM1.81841 1.95017L-1.08652 -0.954762L1.21677 -3.25805L3.98453 -1.54056L1.81841 1.95017ZM1.35721 2.41138L-2.1335 4.57754L-3.85105 1.80976L-1.54773 -0.493557L1.35721 2.41138ZM1.67991 2.9314L5.17061 0.765238L6.43491 2.80261L5.28275 4.90543L1.67991 2.9314ZM1.52387 3.32348L5.49817 4.36379L4.87119 6.75901L2.46048 7.32348L1.52387 3.32348ZM0.941406 3.45987H-3.16679V0.202492L0.00480044 -0.540139L0.941406 3.45987ZM0.941406 4.11211L0.00478846 8.11211L-3.16679 7.36948V4.11211H0.941406ZM1.53714 4.25161L2.47376 0.251605L4.80698 0.79794L5.47999 3.09783L1.53714 4.25161ZM1.70433 4.63902L5.24936 2.56296L6.50111 4.70042L5.19506 6.80514L1.70433 4.63902ZM1.38878 5.14753L-1.51615 8.05246L-3.81944 5.74918L-2.10195 2.98142L1.38878 5.14753ZM1.84998 5.60874L4.01614 9.09944L1.24837 10.817L-1.05495 8.51367L1.84998 5.60874ZM2.36998 5.28606L0.203824 1.79535L2.24119 0.531061L4.34401 1.68321L2.36998 5.28606ZM2.76209 5.44205L3.80141 1.4675L6.19748 2.09405L6.7621 4.50548L2.76209 5.44205ZM2.89847 6.02454V10.1327H-0.358926L-1.10154 6.96111L2.89847 6.02454ZM3.55072 6.02454L7.55073 6.96112L6.80811 10.1327H3.55072V6.02454ZM3.69022 5.42878L2.53663 1.48588C2.34594 1.54167 2.16643 1.61999 2.00141 1.71664L4.0776 5.26159L6.15379 8.80655C5.74758 9.04446 5.30831 9.23579 4.8438 9.37169L3.69022 5.42878ZM4.0776 5.26159L6.24372 1.77087L6.75226 2.08644L4.58614 5.57716L2.42002 9.06789L1.91148 8.75232L4.0776 5.26159ZM4.58614 5.57716L1.68121 2.67223L2.14241 2.21103L5.04735 5.11596L7.95228 8.02089L7.49108 8.48209L4.58614 5.57716ZM5.04735 5.11596L1.55664 7.28212L1.23394 6.76209L4.72464 4.59593L8.21535 2.42977L8.53805 2.9498L5.04735 5.11596ZM4.72464 4.59593L1.12173 2.62203C1.02973 2.78996 0.956617 2.97164 0.906385 3.16355L4.88068 4.20385L8.85498 5.24416C8.73242 5.71238 8.55376 6.15694 8.32756 6.56983L4.72464 4.59593ZM4.88068 4.20385L3.94407 0.203849L4.52654 0.0674644L5.46315 4.06747L6.39975 8.06747L5.81729 8.20386L4.88068 4.20385ZM5.46315 4.06747H1.35495V3.41522H5.46315H9.57134V4.06747H5.46315ZM5.46315 3.41522L4.52656 7.41523L3.93081 7.27574L4.86739 3.27573L5.80398 -0.724282L6.39973 -0.584789L5.46315 3.41522ZM4.86739 3.27573L0.924484 4.42931C0.980275 4.62 1.0586 4.7995 1.15525 4.96454L4.7002 2.88834L8.24516 0.812149C8.48307 1.21836 8.6744 1.65764 8.8103 2.12215L4.86739 3.27573ZM4.7002 2.88834L1.20948 0.722221L1.52504 0.21368L5.01577 2.3798L8.5065 4.54592L8.19093 5.05446L4.7002 2.88834ZM5.01577 2.3798L2.11084 5.28473L1.64964 4.82353L4.55457 1.9186L7.4595 -0.986337L7.9207 -0.525132L5.01577 2.3798ZM4.55457 1.9186L6.72073 5.4093L6.2007 5.732L4.03454 2.2413L1.86838 -1.2494L2.3884 -1.57211L4.55457 1.9186ZM4.03454 2.2413L2.06051 5.84414C2.22861 5.93625 2.41034 6.00935 2.60215 6.05956L3.64246 2.08526L4.68277 -1.88903C5.1509 -1.7665 5.59553 -1.58785 6.00857 -1.36154L4.03454 2.2413ZM3.64246 2.08526L-0.357542 3.02187L-0.493927 2.4394L3.50608 1.5028L7.50608 0.566191L7.64247 1.14866L3.64246 2.08526ZM3.50608 1.5028V5.61099H2.85383V1.5028V-2.6054H3.50608V1.5028ZM2.85383 1.5028L6.85384 2.43938L6.71434 3.03514L2.71434 2.09855L-1.28567 1.16196L-1.14618 0.566211L2.85383 1.5028ZM2.71434 2.09855L3.86792 6.04146C4.05861 5.98567 4.23811 5.90734 4.40314 5.81069L2.32695 2.26574L0.250758 -1.27921C0.656972 -1.51712 1.09625 -1.70845 1.56075 -1.84436L2.71434 2.09855ZM2.32695 2.26574L0.16083 5.75647L-0.347711 5.4409L1.81841 1.95017L3.98453 -1.54056L4.49307 -1.22499L2.32695 2.26574ZM1.81841 1.95017L4.72334 4.8551L4.26214 5.31631L1.35721 2.41138L-1.54773 -0.493557L-1.08652 -0.954762L1.81841 1.95017ZM1.35721 2.41138L4.84791 0.245213L5.17061 0.765238L1.67991 2.9314L-1.81079 5.09756L-2.1335 4.57754L1.35721 2.41138ZM1.67991 2.9314L5.28275 4.90543C5.37486 4.73733 5.44796 4.5556 5.49817 4.36379L1.52387 3.32348L-2.45042 2.28317C-2.32789 1.81504 -2.14925 1.37042 -1.92293 0.957371L1.67991 2.9314ZM1.52387 3.32348L2.46048 7.32348L1.87801 7.45987L0.941406 3.45987L0.00480044 -0.540139L0.587265 -0.676524L1.52387 3.32348ZM0.941406 3.45987H5.0496V4.11211H0.941406H-3.16679V3.45987H0.941406ZM0.941406 4.11211L1.87802 0.112112L2.47376 0.251605L1.53714 4.25161L0.600522 8.25161L0.00478846 8.11211L0.941406 4.11211ZM1.53714 4.25161L5.47999 3.09783C5.4243 2.90754 5.34609 2.72813 5.24936 2.56296L1.70433 4.63902L-1.8407 6.71508C-2.07869 6.30871 -2.2699 5.86951 -2.40571 5.40538L1.53714 4.25161ZM1.70433 4.63902L5.19506 6.80514L4.87951 7.31365L1.38878 5.14753L-2.10195 2.98142L-1.7864 2.47291L1.70433 4.63902ZM1.38878 5.14753L4.29371 2.2426L4.75492 2.7038L1.84998 5.60874L-1.05495 8.51367L-1.51615 8.05246L1.38878 5.14753ZM1.84998 5.60874L-0.31617 2.11803L0.203824 1.79535L2.36998 5.28606L4.53613 8.77676L4.01614 9.09944L1.84998 5.60874ZM2.36998 5.28606L4.34401 1.68321C4.17566 1.59097 3.99361 1.51776 3.80141 1.4675L2.76209 5.44205L1.72277 9.4166C1.25421 9.29408 0.809238 9.11534 0.395949 8.8889L2.36998 5.28606ZM2.76209 5.44205L6.7621 4.50548L6.89849 5.08796L2.89847 6.02454L-1.10154 6.96111L-1.23792 6.37862L2.76209 5.44205ZM2.89847 6.02454V1.91634H3.55072V6.02454V10.1327H2.89847V6.02454ZM3.55072 6.02454L-0.449287 5.08795L-0.309794 4.4922L3.69022 5.42878L7.69022 6.36537L7.55073 6.96112L3.55072 6.02454ZM3.20228 4.68102V0.572823C1.44001 0.572823 0.0114319 2.0014 0.0114319 3.76367H4.11963H8.22782C8.22782 6.53919 5.9778 8.78921 3.20228 8.78921V4.68102ZM4.11963 3.76367H0.0114319C0.0114319 5.52593 1.44001 6.95451 3.20228 6.95451V2.84632V-1.26188C5.9778 -1.26188 8.22782 0.988142 8.22782 3.76367H4.11963ZM3.20228 2.84632V6.95451C4.96454 6.95451 6.39312 5.52593 6.39312 3.76367H2.28492H-1.82327C-1.82327 0.988142 0.42675 -1.26188 3.20228 -1.26188V2.84632ZM2.28492 3.76367H6.39312C6.39312 2.00141 4.96454 0.572823 3.20228 0.572823V4.68102V8.78921C0.42675 8.78921 -1.82327 6.53919 -1.82327 3.76367H2.28492Z" fill="url(#paint3_linear_3814_1660)" mask="url(#path-3-inside-2_3814_1660)"/>
<defs>
<linearGradient id="paint0_linear_3814_1660" x1="3.01116" y1="4.2839" x2="4.16733" y2="-0.497604" gradientUnits="userSpaceOnUse">
<stop stop-color="white"/>
<stop offset="0.480072" stop-color="white" stop-opacity="0"/>
</linearGradient>
<linearGradient id="paint1_linear_3814_1660" x1="4.24585" y1="3.18561" x2="5.3444" y2="-0.800884" gradientUnits="userSpaceOnUse">
<stop offset="0.502295" stop-color="white" stop-opacity="0"/>
<stop offset="1" stop-color="white"/>
</linearGradient>
<linearGradient id="paint2_linear_3814_1660" x1="-1.91119" y1="7.71771" x2="-0.0324165" y2="-0.0522278" gradientUnits="userSpaceOnUse">
<stop stop-color="white"/>
<stop offset="0.480072" stop-color="white" stop-opacity="0"/>
</linearGradient>
<linearGradient id="paint3_linear_3814_1660" x1="0.0951837" y1="5.93299" x2="1.88033" y2="-0.545057" gradientUnits="userSpaceOnUse">
<stop offset="0.502295" stop-color="white" stop-opacity="0"/>
<stop offset="1" stop-color="white"/>
</linearGradient>
</defs>
</svg>
