<svg width="133" height="134" viewBox="0 0 133 134" fill="none" xmlns="http://www.w3.org/2000/svg">
<path d="M132.42 63.7044C132.408 63.4915 132.401 63.272 132.382 63.059H125.328L117.034 48.6926L124.585 35.6105C124.437 35.3329 124.288 35.0619 124.134 34.7908L116.298 48.3699H100.054L91.7606 34.0034L100.054 19.637H112.555C112.336 19.4175 112.116 19.2046 111.897 18.9916H100.047L92.6577 6.20634C92.2512 6.02563 91.8445 5.85138 91.4379 5.68358L99.3053 19.3143L91.0184 33.6807H74.7674L66.4741 19.3143L74.7674 4.94782H89.5663C88.979 4.72193 88.3852 4.5025 87.7915 4.30243H74.7674L72.8635 1.01738C72.5473 0.985106 72.2246 0.952833 71.9019 0.933472L74.0381 4.62512L65.7448 18.9916H49.4938L41.6136 5.34152C41.3683 5.43833 41.1166 5.53513 40.8714 5.63839L48.7645 19.3143L40.4712 33.6807H24.2202L17.4242 21.9152C17.2306 22.1153 17.0435 22.3218 16.8627 22.5283L23.4909 34.0034L15.1976 48.3699H2.38655C2.31556 48.5829 2.25749 48.8023 2.1994 49.0153H15.1976L23.4909 63.3882L15.1976 77.7547H0.572998C0.598814 77.9676 0.63754 78.1871 0.676263 78.4001H15.1976L23.4909 92.7665L15.1976 107.133H13.1646C13.326 107.352 13.4938 107.565 13.6616 107.778H15.1976L18.2697 113.096C18.9603 113.826 19.6767 114.536 20.4124 115.233L15.9269 107.462L24.2202 93.0956H40.4712L48.7645 107.462L40.4712 121.829H28.5573C28.8735 122.048 29.1962 122.261 29.5189 122.474H40.4712L44.7954 129.967C45.1697 130.096 45.544 130.219 45.9248 130.335L41.2005 122.158L49.4938 107.791H65.7448L74.0381 122.158L67.5197 133.452C67.8295 133.446 68.1392 133.433 68.449 133.42L74.7674 122.48H91.012L93.8517 127.398C94.097 127.289 94.3358 127.179 94.5746 127.056L91.7477 122.158L100.041 107.791H116.286L117.228 109.424C117.415 109.205 117.589 108.985 117.77 108.766L117.021 107.469L125.315 93.1021H127.193C127.283 92.8891 127.373 92.6761 127.464 92.4567H125.315L117.021 78.0902L125.315 63.7174H132.408L132.42 63.7044ZM100.054 107.139L91.7606 92.7729L100.054 78.4065H116.298L124.592 92.7729L116.298 107.139H100.054ZM74.7803 63.7044H91.0249L99.3182 78.0774L91.0313 92.4438H74.7803L66.487 78.0774L74.7803 63.7044ZM65.7577 77.7611H49.5067L41.2134 63.3882L49.5067 49.0217H65.7577L74.051 63.3947L65.7577 77.7611ZM66.487 107.462L74.7803 93.0956H91.0249L99.3182 107.462L91.0249 121.829H74.7803L66.487 107.462ZM41.2134 92.7665L49.5067 78.4001H65.7577L74.051 92.7665L65.7577 107.133H49.5067L41.2134 92.7665ZM24.2396 63.7044H40.4906L48.7839 78.0774L40.4906 92.4438H24.2396L15.9463 78.0774L24.2396 63.7044ZM40.4841 34.3261L48.7774 48.6926L40.4841 63.059H24.2331L15.9398 48.6926L24.2331 34.3261H40.4841ZM74.0575 34.0034L65.7642 48.3699H49.5132L41.2199 34.0034L49.5132 19.637H65.7642L74.0575 34.0034ZM99.3182 48.6926L91.0313 63.059H74.7803L66.487 48.6926L74.7803 34.3261H91.0249L99.3182 48.6926ZM124.592 63.3882L116.298 77.7547H100.054L91.7606 63.3817L100.054 49.0153H116.298L124.592 63.3882Z" fill="url(#paint0_radial_3528_2450)"/>
<g style="mix-blend-mode:lighten">
<path d="M68.4813 49.0152C68.4813 47.7115 67.4229 46.6531 66.1192 46.6531C64.8155 46.6531 63.7571 47.7115 63.7571 49.0152C63.7571 50.3189 64.8155 51.3774 66.1192 51.3774C67.4229 51.3774 68.4813 50.3189 68.4813 49.0152Z" fill="#F3EDDE"/>
</g>
<g style="mix-blend-mode:lighten">
<path d="M76.8588 34.1907C76.8588 32.887 75.8004 31.8286 74.4967 31.8286C73.193 31.8286 72.1345 32.887 72.1345 34.1907C72.1345 35.4944 73.193 36.5528 74.4967 36.5528C75.8004 36.5528 76.8588 35.4944 76.8588 34.1907Z" fill="#F3EDDE"/>
</g>
<g style="mix-blend-mode:lighten">
<path d="M51.0751 78.0256C51.0751 76.7219 50.0167 75.6635 48.713 75.6635C47.4093 75.6635 46.3508 76.7219 46.3508 78.0256C46.3508 79.3293 47.4093 80.3877 48.713 80.3877C50.0167 80.3877 51.0751 79.3293 51.0751 78.0256Z" fill="#F3EDDE"/>
</g>
<g style="mix-blend-mode:lighten">
<path d="M76.8588 63.2009C76.8588 61.8972 75.8004 60.8387 74.4967 60.8387C73.193 60.8387 72.1345 61.8972 72.1345 63.2009C72.1345 64.5046 73.193 65.563 74.4967 65.563C75.8004 65.563 76.8588 64.5046 76.8588 63.2009Z" fill="#F3EDDE"/>
</g>
<g style="mix-blend-mode:lighten">
<path d="M69.1269 78.0256C69.1269 76.7219 68.0684 75.6635 66.7647 75.6635C65.461 75.6635 64.4026 76.7219 64.4026 78.0256C64.4026 79.3293 65.461 80.3877 66.7647 80.3877C68.0684 80.3877 69.1269 79.3293 69.1269 78.0256Z" fill="#F3EDDE"/>
</g>
<g style="mix-blend-mode:lighten">
<path d="M76.8588 92.8503C76.8588 91.5466 75.8004 90.4882 74.4967 90.4882C73.193 90.4882 72.1345 91.5466 72.1345 92.8503C72.1345 94.154 73.193 95.2124 74.4967 95.2124C75.8004 95.2124 76.8588 94.154 76.8588 92.8503Z" fill="#F3EDDE"/>
</g>
<g style="mix-blend-mode:lighten">
<path d="M93.6198 63.2009C93.6198 61.8972 92.5613 60.8387 91.2577 60.8387C89.954 60.8387 88.8955 61.8972 88.8955 63.2009C88.8955 64.5046 89.954 65.563 91.2577 65.563C92.5613 65.563 93.6198 64.5046 93.6198 63.2009Z" fill="#F3EDDE"/>
</g>
<g style="mix-blend-mode:lighten">
<path d="M101.997 78.0256C101.997 76.7219 100.938 75.6635 99.6346 75.6635C98.3309 75.6635 97.2725 76.7219 97.2725 78.0256C97.2725 79.3293 98.3309 80.3877 99.6346 80.3877C100.938 80.3877 101.997 79.3293 101.997 78.0256Z" fill="#F3EDDE"/>
</g>
<g style="mix-blend-mode:lighten">
<path d="M43.3429 63.2009C43.3429 61.8972 42.2845 60.8387 40.9808 60.8387C39.6771 60.8387 38.6187 61.8972 38.6187 63.2009C38.6187 64.5046 39.6771 65.563 40.9808 65.563C42.2845 65.563 43.3429 64.5046 43.3429 63.2009Z" fill="#F3EDDE"/>
</g>
<g style="mix-blend-mode:lighten">
<path d="M101.997 49.0152C101.997 47.7115 100.938 46.6531 99.6346 46.6531C98.3309 46.6531 97.2725 47.7115 97.2725 49.0152C97.2725 50.3189 98.3309 51.3774 99.6346 51.3774C100.938 51.3774 101.997 50.3189 101.997 49.0152Z" fill="#F3EDDE"/>
</g>
<g style="mix-blend-mode:lighten">
<path d="M93.6198 34.1907C93.6198 32.887 92.5613 31.8286 91.2577 31.8286C89.954 31.8286 88.8955 32.887 88.8955 34.1907C88.8955 35.4944 89.954 36.5528 91.2577 36.5528C92.5613 36.5528 93.6198 35.4944 93.6198 34.1907Z" fill="#F3EDDE"/>
</g>
<g style="mix-blend-mode:lighten">
<path d="M51.7204 48.3763C51.7204 47.0726 50.6619 46.0142 49.3582 46.0142C48.0545 46.0142 46.9961 47.0726 46.9961 48.3763C46.9961 49.68 48.0545 50.7384 49.3582 50.7384C50.6619 50.7384 51.7204 49.68 51.7204 48.3763Z" fill="#F3EDDE"/>
</g>
<defs>
<radialGradient id="paint0_radial_3528_2450" cx="0" cy="0" r="1" gradientUnits="userSpaceOnUse" gradientTransform="translate(80.7567 61.5746) scale(66.0883 66.0883)">
<stop offset="0.12" stop-color="#F79839"/>
<stop offset="0.5" stop-color="#F79839" stop-opacity="0.27"/>
<stop offset="0.64" stop-color="#F79839" stop-opacity="0"/>
</radialGradient>
</defs>
</svg>
