<svg width="60" height="60" viewBox="0 0 60 60" fill="none" xmlns="http://www.w3.org/2000/svg">
<path d="M33.0244 28.272H32.9262L32.1227 26.9657L31.4465 28.2373L31.4176 28.3298L29.9263 28.694L30.9262 29.7286L31.0072 29.7806L30.8915 31.3124L32.1805 30.6823L32.2557 30.6245L33.6834 31.2084L33.4811 29.7806L33.4464 29.6882L34.4406 28.5206L33.0244 28.272Z" fill="#F3EDDE"/>
<path d="M44.2262 33.2142L58.798 16.8911L56.5958 10.3422L47.203 20.8158L39.3651 19.3014L28.3424 0.400269L21.4351 0.469628L28.4927 12.6369L24.6315 19.6251L3.24492 24.2666L1.1814 30.8559L14.9382 27.908L20.3889 33.7402L18.1982 55.5141L23.8281 59.514L25.2731 45.5202L32.5041 42.1388L52.5323 50.9535L58.0755 46.8381L45.2147 41.1388L44.232 33.2142H44.2262ZM37.9895 31.7634L38.7698 38.3239L32.296 35.4974L31.9434 35.7633L25.9436 38.5378L26.6314 31.5091L26.2673 31.2547L21.7819 26.411L28.6776 24.8966L28.8106 24.4746L32.0359 18.706L35.608 24.7983H36.0473L42.5269 26.0757L37.8392 31.3588L37.9779 31.7808L37.9895 31.7634Z" stroke="#F79839" stroke-width="0.508061" stroke-miterlimit="10"/>
</svg>
